<svg xml:space="preserve" enable-background="new 0 0 100 100" viewBox="0 0 100 100" height="100px" width="100px" y="0px" x="0px" id="Layer_1" version="1.1" xmlns:xlink="http://www.w3.org/1999/xlink" xmlns="http://www.w3.org/2000/svg">
<path d="M49.629,50.612c0,2.227,3.706,4.445,8.279,4.445c4.572,0,8.278-2.219,8.278-4.445  c0-2.227-3.706-4.445-8.278-4.445C53.335,46.167,49.629,48.385,49.629,50.612z M14.355,54.182c0,23.493,19.04,42.532,42.533,42.532  c23.492,0,42.532-19.039,42.532-42.532c0-23.493-19.04-42.532-42.532-42.532c-6.622,0-12.885,1.513-18.47,4.216  c0.34,1.497,0.527,3.052,0.527,4.658c0,11.492-9.324,20.816-20.816,20.816c-0.594,0-1.189-0.034-1.776-0.076  C15.061,45.334,14.355,49.677,14.355,54.182z M85.081,49.32L52.06,70.204l-21.538-9.877l2.346-1.453L52.06,67.51l30.666-19.422  L85.081,49.32z M85.081,53.808L52.06,74.691l-21.538-9.876l2.346-1.454l19.192,8.636l30.666-19.421L85.081,53.808z M85.081,44.833  L52.06,65.717L30.521,55.84l33.021-20.875L85.081,44.833z M0.28,20.523c0,9.86,7.99,17.85,17.849,17.85  c9.86,0,17.85-7.99,17.85-17.85c0-9.859-7.99-17.849-17.85-17.849C8.27,2.674,0.28,10.664,0.28,20.523z M20.475,13.545v5.143h5.143  c1.011,0,1.835,0.824,1.835,1.835c0,1.012-0.825,1.836-1.835,1.836h-5.143v5.143c0,1.011-0.867,1.784-1.878,1.784  c-1.021,0-1.794-0.773-1.794-1.784v-5.143h-5.143c-1.011,0-1.835-0.824-1.835-1.836c0-1.011,0.824-1.835,1.835-1.835h5.143v-5.143  c0-1.011,0.824-1.835,1.836-1.835S20.475,12.534,20.475,13.545z" clip-rule="evenodd" fill-rule="evenodd"/>
</svg>