<svg xml:space="preserve" enable-background="new 0 0 100 90.027" viewBox="0 0 100 90.027" height="100px" width="100px" y="0px" x="0px" id="Layer_1" version="1.1" xmlns:xlink="http://www.w3.org/1999/xlink" xmlns="http://www.w3.org/2000/svg">
<path d="M100,45.014c0,24.792-20.222,45.014-45.014,45.014c-12.466,0-23.823-5.125-31.856-13.296l6.925-6.926  c6.371,6.232,15.235,10.249,24.931,10.249c19.391,0,35.041-15.65,35.041-35.041S74.377,9.972,54.986,9.972  c-17.037,0-31.302,11.773-34.488,27.839l11.219-1.662L15.789,58.448L0,36.149l10.526,1.523C13.85,16.205,32.41,0,54.986,0  C79.778,0,100,20.083,100,45.014z" fill="#000000"/>
<path d="M71.468,30.332c5.817-2.493,9.695,6.51,4.017,9.142l-18.005,7.202l-3.74,10.11  c-2.216,6.371-11.357,2.217-9.28-3.462l4.293-11.912c0.554-1.247,1.247-2.216,2.355-2.632L71.468,30.332z" fill="#000000"/>
</svg>